<?xml version="1.0" encoding="utf-8"?>
<!-- Generator: Adobe Illustrator 23.0.1, SVG Export Plug-In . SVG Version: 6.00 Build 0)  -->
<svg version="1.1" id="レイヤー_1" xmlns="http://www.w3.org/2000/svg" xmlns:xlink="http://www.w3.org/1999/xlink" x="0px"
	 y="0px" viewBox="0 0 300 300" style="enable-background:new 0 0 300 300;" xml:space="preserve">
<path d="M244.5,55.5V0h-15v55.5h-72V0h-15v55.5h-72V0h-15v55.5H0v15h55.5v72H0v15h55.5v72H0v15h55.5V300h15v-55.5h72V300h15v-55.5
	h72V300h15v-55.5H300v-15h-55.5v-72H300v-15h-55.5v-72H300v-15H244.5z M142.5,142.5h-72v-72h72V142.5z M142.5,157.5v72h-72v-72
	H142.5z M157.5,157.5h72v72h-72V157.5z M157.5,142.5v-72h72v72H157.5z"/>
</svg>
