<?xml version="1.0" encoding="utf-8"?>
<!-- Generator: Adobe Illustrator 23.0.1, SVG Export Plug-In . SVG Version: 6.00 Build 0)  -->
<svg version="1.1" id="レイヤー_1" xmlns="http://www.w3.org/2000/svg" xmlns:xlink="http://www.w3.org/1999/xlink" x="0px"
	 y="0px" viewBox="0 0 300 300" style="enable-background:new 0 0 300 300;" xml:space="preserve">
<path d="M39.11,194.66c-0.16,0.41-0.37,0.7-0.61,0.88c-0.24,0.18-0.53,0.27-0.85,0.27H17.78v50.83c0,0.33-0.11,0.62-0.32,0.88
	c-0.21,0.26-0.56,0.47-1.05,0.63c-0.49,0.16-1.14,0.29-1.95,0.39c-0.81,0.1-1.86,0.15-3.12,0.15c-1.24,0-2.27-0.05-3.1-0.15
	s-1.49-0.23-1.98-0.39c-0.49-0.16-0.84-0.37-1.05-0.63c-0.21-0.26-0.32-0.55-0.32-0.88v-57.37c0-1.43,0.37-2.47,1.1-3.1
	s1.64-0.95,2.71-0.95h28.96c0.33,0,0.61,0.1,0.85,0.29s0.45,0.51,0.61,0.95c0.16,0.44,0.28,0.99,0.37,1.66
	c0.08,0.67,0.12,1.49,0.12,2.47s-0.04,1.8-0.12,2.47C39.4,193.72,39.28,194.26,39.11,194.66z M46.95,240
	c-0.96,0.91-1.44,2.56-1.44,4.93c0,2.47,0.5,4.19,1.49,5.15c0.99,0.96,2.87,1.44,5.64,1.44c2.73,0,4.59-0.46,5.57-1.39
	s1.46-2.58,1.46-4.96c0-2.47-0.5-4.18-1.51-5.13c-1.01-0.94-2.88-1.42-5.62-1.42C49.77,238.63,47.91,239.09,46.95,240z
	 M57.45,231.82c0.47-0.18,0.81-0.39,1-0.63s0.29-0.53,0.29-0.85v-43.46c0-0.33-0.1-0.61-0.29-0.85s-0.53-0.45-1-0.61
	c-0.47-0.16-1.1-0.28-1.88-0.37c-0.78-0.08-1.77-0.12-2.98-0.12c-1.2,0-2.2,0.04-2.98,0.12c-0.78,0.08-1.41,0.2-1.88,0.37
	c-0.47,0.16-0.81,0.37-1,0.61s-0.29,0.53-0.29,0.85v43.46c0,0.33,0.1,0.61,0.29,0.85s0.53,0.46,1,0.63c0.47,0.18,1.1,0.32,1.88,0.42
	s1.77,0.15,2.98,0.15c1.2,0,2.2-0.05,2.98-0.15S56.98,232,57.45,231.82z M96.27,221.81c-0.93,0.47-2.01,0.71-3.25,0.71
	c-1.56,0-3.14-0.57-4.74-1.71c-1.6-1.14-3.26-2.8-4.98-4.98v-28.96c0-0.33-0.1-0.61-0.29-0.85s-0.53-0.45-1-0.61
	c-0.47-0.16-1.1-0.28-1.88-0.37c-0.78-0.08-1.77-0.12-2.98-0.12c-1.2,0-2.2,0.04-2.98,0.12c-0.78,0.08-1.41,0.2-1.88,0.37
	c-0.47,0.16-0.81,0.37-1,0.61S71,186.55,71,186.88v43.55c0,0.33,0.08,0.61,0.24,0.85c0.16,0.24,0.46,0.45,0.88,0.61
	c0.42,0.16,0.97,0.28,1.64,0.37c0.67,0.08,1.51,0.12,2.51,0.12c1.04,0,1.9-0.04,2.59-0.12c0.68-0.08,1.21-0.2,1.59-0.37
	c0.37-0.16,0.64-0.37,0.81-0.61c0.16-0.24,0.24-0.53,0.24-0.85v-5.03c2.41,2.6,4.86,4.56,7.35,5.86c2.49,1.3,5.09,1.95,7.79,1.95
	c2.96,0,5.46-0.49,7.5-1.46c2.03-0.98,3.68-2.3,4.93-3.98c1.25-1.68,2.16-3.64,2.71-5.88c0.55-2.25,0.83-4.95,0.83-8.11v-26.9
	c0-0.33-0.1-0.61-0.29-0.85s-0.52-0.45-0.98-0.61c-0.46-0.16-1.08-0.28-1.88-0.37c-0.8-0.08-1.78-0.12-2.95-0.12
	c-1.21,0-2.21,0.04-3,0.12c-0.8,0.08-1.42,0.2-1.88,0.37c-0.46,0.16-0.78,0.37-0.98,0.61s-0.29,0.53-0.29,0.85v24.85
	c0,2.12-0.16,3.78-0.46,4.98c-0.31,1.2-0.76,2.24-1.34,3.1C97.95,220.67,97.19,221.34,96.27,221.81z M160.06,227.13
	c-1.66,1.9-3.78,3.39-6.37,4.47s-5.71,1.61-9.35,1.61c-3.45,0-6.55-0.57-9.3-1.71c-2.75-1.14-5.09-2.79-7.01-4.96
	c-1.92-2.17-3.39-4.8-4.39-7.91c-1.01-3.11-1.51-6.6-1.51-10.47c0-4.07,0.48-7.62,1.44-10.64c0.96-3.03,2.42-5.53,4.37-7.52
	c1.95-1.99,4.39-3.47,7.3-4.44c2.91-0.98,6.31-1.46,10.18-1.46c2.15,0,4.17,0.14,6.05,0.42c1.89,0.28,3.56,0.6,5.03,0.98
	s2.67,0.76,3.61,1.15c0.94,0.39,1.52,0.7,1.73,0.93c0.21,0.23,0.38,0.46,0.51,0.71c0.13,0.24,0.23,0.54,0.29,0.9
	c0.06,0.36,0.11,0.79,0.15,1.29c0.03,0.5,0.05,1.11,0.05,1.83c0,0.81-0.02,1.49-0.07,2.03s-0.14,0.95-0.27,1.25
	c-0.13,0.29-0.29,0.5-0.49,0.61c-0.2,0.11-0.44,0.17-0.73,0.17c-0.49,0-1.12-0.15-1.9-0.46c-0.78-0.31-1.77-0.65-2.95-1.03
	c-1.19-0.37-2.6-0.72-4.22-1.03c-1.63-0.31-3.52-0.46-5.66-0.46c-2.12,0-3.93,0.28-5.44,0.83c-1.51,0.55-2.75,1.36-3.71,2.42
	c-0.96,1.06-1.66,2.34-2.1,3.86s-0.66,3.2-0.66,5.05h26.51c1.17,0,2.09,0.36,2.76,1.07c0.67,0.72,1,1.82,1,3.32v1.95
	c0,3.06-0.39,5.89-1.17,8.5C162.94,222.98,161.72,225.23,160.06,227.13z M134.62,213.44c0.06,1.53,0.3,2.97,0.71,4.32
	c0.41,1.35,0.99,2.52,1.76,3.52c0.76,0.99,1.72,1.78,2.88,2.37c1.16,0.59,2.51,0.88,4.08,0.88c3.09,0,5.38-0.98,6.86-2.95
	c1.48-1.97,2.17-4.68,2.08-8.13H134.62z M176.78,187.68c1.42-1.19,3.09-2.08,5.03-2.69c1.94-0.6,4.06-0.9,6.37-0.9
	c2.8,0,5.35,0.54,7.64,1.61s4.34,2.57,6.13,4.49v-3.47c0-0.46,0.14-0.81,0.42-1.07c0.28-0.26,0.75-0.45,1.42-0.56
	c0.67-0.11,1.73-0.17,3.2-0.17c1.37,0,2.4,0.06,3.1,0.17c0.7,0.11,1.21,0.3,1.54,0.56c0.33,0.26,0.49,0.62,0.49,1.07v29.3
	c0,2.99-0.36,5.58-1.07,7.76c-0.72,2.18-1.86,3.96-3.42,5.35c-1.56,1.38-3.56,2.41-5.98,3.08c-2.43,0.67-5.35,1-8.76,1
	c-1.92,0-3.78-0.15-5.59-0.46c-1.81-0.31-3.48-0.71-5-1.2c-1.53-0.49-2.87-1.02-4-1.59c-1.14-0.57-1.94-1.09-2.39-1.56
	c-0.46-0.47-0.77-1-0.93-1.59c-0.16-0.59-0.24-1.38-0.24-2.39c0-0.75,0.05-1.43,0.15-2.05c0.1-0.62,0.24-1.14,0.42-1.56
	c0.18-0.42,0.41-0.75,0.68-0.98c0.28-0.23,0.59-0.34,0.95-0.34c0.52,0,1.2,0.23,2.03,0.68c0.83,0.46,1.86,0.96,3.1,1.51
	c1.24,0.55,2.66,1.06,4.27,1.51c1.61,0.46,3.44,0.68,5.49,0.68c1.56,0,2.87-0.16,3.93-0.49c1.06-0.33,1.9-0.83,2.54-1.51
	s1.09-1.54,1.37-2.56c0.28-1.03,0.42-2.22,0.42-3.59v-2.64h-4.25c-3.87,0-7.28-0.29-10.21-0.88s-5.38-1.49-7.35-2.71
	c-1.97-1.22-3.45-2.77-4.44-4.64c-0.99-1.87-1.49-4.08-1.49-6.62c0-2.34,0.39-4.39,1.17-6.15S175.37,188.87,176.78,187.68z
	 M184.94,201.5c0.41,0.83,1.05,1.54,1.93,2.12s2.02,1.03,3.42,1.32c1.4,0.29,3.09,0.44,5.08,0.44h4.69v-7.42
	c-1.5-1.69-2.97-2.98-4.42-3.86c-1.45-0.88-3.04-1.32-4.76-1.32c-2.05,0-3.65,0.52-4.81,1.56c-1.16,1.04-1.73,2.47-1.73,4.3
	C184.33,199.72,184.53,200.67,184.94,201.5z M252.3,229.16c0.03-0.68,0.05-1.61,0.05-2.78s-0.03-2.13-0.1-2.88
	c-0.07-0.75-0.16-1.33-0.29-1.76c-0.13-0.42-0.3-0.72-0.51-0.88c-0.21-0.16-0.48-0.24-0.81-0.24c-0.26,0-0.55,0.06-0.88,0.17
	c-0.33,0.11-0.69,0.24-1.1,0.37c-0.41,0.13-0.85,0.25-1.34,0.37c-0.49,0.11-1.03,0.17-1.61,0.17c-0.68,0-1.37-0.14-2.05-0.42
	c-0.68-0.28-1.39-0.71-2.12-1.29s-1.5-1.37-2.29-2.34c-0.8-0.98-1.65-2.18-2.56-3.61v-27.15c0-0.33-0.1-0.61-0.29-0.85
	s-0.53-0.45-1-0.61c-0.47-0.16-1.1-0.28-1.88-0.37c-0.78-0.08-1.77-0.12-2.98-0.12c-1.21,0-2.2,0.04-2.98,0.12
	c-0.78,0.08-1.41,0.2-1.88,0.37c-0.47,0.16-0.81,0.37-1,0.61s-0.29,0.53-0.29,0.85v43.55c0,0.33,0.08,0.61,0.24,0.85
	c0.16,0.24,0.46,0.45,0.88,0.61c0.42,0.16,0.97,0.28,1.64,0.37c0.67,0.08,1.5,0.12,2.51,0.12c1.04,0,1.9-0.04,2.59-0.12
	c0.68-0.08,1.21-0.2,1.59-0.37c0.37-0.16,0.64-0.37,0.81-0.61c0.16-0.24,0.24-0.53,0.24-0.85v-5.42c1.14,1.63,2.21,2.97,3.22,4.03
	c1.01,1.06,1.97,1.9,2.88,2.51c0.91,0.62,1.82,1.05,2.73,1.29c0.91,0.24,1.82,0.37,2.73,0.37c0.42,0,0.88-0.02,1.37-0.07
	s0.99-0.13,1.51-0.24c0.52-0.11,0.98-0.24,1.37-0.39s0.67-0.3,0.85-0.46c0.18-0.16,0.31-0.34,0.39-0.54
	c0.08-0.2,0.15-0.46,0.22-0.81C252.21,230.36,252.26,229.84,252.3,229.16z M295.22,254.6l-29.15-82.03
	c-0.16-0.42-0.38-0.76-0.63-1.03c-0.26-0.26-0.63-0.47-1.1-0.63c-0.47-0.16-1.06-0.28-1.76-0.37c-0.7-0.08-1.59-0.12-2.66-0.12
	c-1.33,0-2.43,0.07-3.27,0.2c-0.85,0.13-1.49,0.33-1.93,0.59c-0.44,0.26-0.69,0.59-0.76,1c-0.07,0.41,0,0.89,0.2,1.44l29.2,81.98
	c0.13,0.42,0.33,0.77,0.59,1.05c0.26,0.28,0.62,0.5,1.07,0.66c0.46,0.16,1.05,0.28,1.78,0.37c0.73,0.08,1.62,0.12,2.66,0.12
	c1.37,0,2.47-0.07,3.3-0.2c0.83-0.13,1.46-0.33,1.88-0.59c0.42-0.26,0.67-0.59,0.73-1C295.43,255.63,295.38,255.15,295.22,254.6z
	 M39.48,73.05c0.08-0.67,0.12-1.49,0.12-2.47s-0.04-1.8-0.12-2.47c-0.08-0.67-0.2-1.22-0.37-1.66c-0.16-0.44-0.37-0.76-0.61-0.95
	s-0.53-0.29-0.85-0.29H8.69c-1.07,0-1.98,0.32-2.71,0.95s-1.1,1.67-1.1,3.1v57.37c0,0.33,0.11,0.62,0.32,0.88
	c0.21,0.26,0.56,0.47,1.05,0.63c0.49,0.16,1.15,0.29,1.98,0.39s1.86,0.15,3.1,0.15c1.27,0,2.31-0.05,3.12-0.15
	c0.81-0.1,1.46-0.23,1.95-0.39c0.49-0.16,0.84-0.38,1.05-0.63c0.21-0.26,0.32-0.55,0.32-0.88V75.81h19.87
	c0.33,0,0.61-0.09,0.85-0.27c0.24-0.18,0.45-0.47,0.61-0.88C39.28,74.26,39.4,73.72,39.48,73.05z M84.94,106.96
	c-1.87,2.05-4.24,3.6-7.1,4.66c-2.86,1.06-6.25,1.59-10.16,1.59c-4,0-7.5-0.6-10.47-1.81c-2.98-1.21-5.46-2.91-7.45-5.1
	c-1.99-2.2-3.48-4.83-4.47-7.91c-0.99-3.08-1.49-6.47-1.49-10.18c0-3.84,0.46-7.26,1.37-10.25c0.91-3,2.31-5.52,4.2-7.57
	c1.89-2.05,4.26-3.61,7.13-4.69c2.86-1.07,6.23-1.61,10.11-1.61c4,0,7.5,0.6,10.5,1.81c2.99,1.2,5.48,2.91,7.47,5.13
	c1.99,2.21,3.47,4.85,4.44,7.91c0.98,3.06,1.46,6.45,1.46,10.16c0,3.87-0.46,7.31-1.37,10.3C88.2,102.39,86.81,104.91,84.94,106.96z
	 M77.2,82.43c-0.42-1.81-1.07-3.34-1.95-4.61s-2-2.24-3.37-2.91c-1.37-0.67-2.98-1-4.83-1c-2.02,0-3.71,0.37-5.08,1.1
	s-2.45,1.77-3.25,3.1c-0.8,1.33-1.38,2.91-1.73,4.71c-0.36,1.81-0.54,3.78-0.54,5.93c0,2.31,0.22,4.37,0.66,6.18s1.1,3.35,1.98,4.64
	c0.88,1.29,2,2.26,3.37,2.93c1.37,0.67,2.96,1,4.79,1c2.05,0,3.75-0.38,5.1-1.12c1.35-0.75,2.43-1.79,3.25-3.12
	c0.81-1.33,1.39-2.91,1.73-4.71s0.51-3.78,0.51-5.93C77.83,86.29,77.62,84.23,77.2,82.43z M137.6,112.09h-13.82
	c-1.07,0.29-2.24,0.52-3.49,0.68c-1.25,0.16-2.56,0.24-3.93,0.24c-2.67,0-5.11-0.37-7.32-1.1c-2.21-0.73-4.12-1.79-5.71-3.17
	c-1.6-1.38-2.84-3.08-3.74-5.08c-0.9-2-1.34-4.27-1.34-6.81c0-2.38,0.34-4.36,1.03-5.96c0.68-1.6,1.59-2.96,2.73-4.1
	c-1.4-1.27-2.54-2.69-3.42-4.27c-0.88-1.58-1.32-3.33-1.32-5.25c0-1.53,0.38-2.94,1.15-4.22c0.76-1.29,1.85-2.3,3.25-3.05
	c-1.01-0.75-1.9-1.53-2.69-2.34c-0.78-0.81-1.44-1.67-1.98-2.56s-0.94-1.83-1.22-2.81c-0.28-0.98-0.42-2-0.42-3.08
	c0-1.72,0.38-3.31,1.15-4.76c0.76-1.45,1.99-2.69,3.66-3.74c1.68-1.04,3.82-1.86,6.45-2.44c2.62-0.59,5.79-0.88,9.5-0.88
	c3.81,0,7.14,0.41,9.99,1.22c2.85,0.81,5.22,1.92,7.1,3.32c1.89,1.4,3.3,3.05,4.25,4.96c0.94,1.9,1.42,3.93,1.42,6.08
	c0,1.95-0.35,3.69-1.05,5.22c-0.7,1.53-1.71,2.84-3.03,3.93c-1.32,1.09-2.95,1.94-4.88,2.54c-1.94,0.6-4.14,0.95-6.62,1.05
	l-10.6,0.39c-1.5,0.06-2.66,0.4-3.49,1c-0.83,0.6-1.25,1.38-1.25,2.32c0,0.72,0.15,1.37,0.46,1.95c0.31,0.59,0.66,1.09,1.05,1.51
	c0.68-0.46,1.66-0.85,2.93-1.2s2.6-0.51,4-0.51c2.73,0,5.22,0.35,7.45,1.05c2.23,0.7,4.13,1.72,5.71,3.08
	c1.58,1.35,2.79,3.01,3.64,4.98c0.85,1.97,1.27,4.22,1.27,6.76c0,1.07-0.16,2.11-0.46,3.1c-0.31,0.99-0.82,1.88-1.54,2.66h5.13
	c0.52,0,0.96,0.37,1.32,1.12c0.36,0.75,0.54,1.9,0.54,3.47c0,1.69-0.17,2.9-0.51,3.61C138.6,111.73,138.15,112.09,137.6,112.09z
	 M107.99,63.8c0.31,0.52,0.72,1.07,1.22,1.64c0.5,0.57,1.18,1.16,2.03,1.78l8.74-0.24c2.05-0.07,3.66-0.49,4.83-1.27
	s1.76-1.9,1.76-3.37c0-0.85-0.16-1.65-0.49-2.42c-0.33-0.76-0.88-1.46-1.66-2.08c-0.78-0.62-1.81-1.11-3.08-1.49
	c-1.27-0.37-2.83-0.56-4.69-0.56c-3,0-5.31,0.42-6.96,1.27c-1.64,0.85-2.47,2.08-2.47,3.71c0,0.52,0.05,1.03,0.15,1.51
	S107.68,63.28,107.99,63.8z M123.22,94.29c-0.31-0.9-0.77-1.68-1.37-2.37c-0.6-0.68-1.36-1.22-2.27-1.61
	c-0.91-0.39-1.99-0.59-3.22-0.59c-2.31,0-4.12,0.64-5.42,1.93c-1.3,1.29-1.95,3.04-1.95,5.25c0,1.01,0.15,1.98,0.44,2.91
	s0.74,1.74,1.34,2.44c0.6,0.7,1.36,1.25,2.27,1.66c0.91,0.41,1.97,0.61,3.17,0.61c2.38,0,4.21-0.65,5.52-1.95
	c1.3-1.3,1.95-3.12,1.95-5.47C123.68,96.12,123.53,95.19,123.22,94.29z M241.52,68.28c0.26-1,0.11-1.76-0.46-2.28
	c-0.57-0.52-1.6-0.86-3.1-1c-1.5-0.14-3.58-0.21-6.24-0.21c-2.23,0-3.99,0.05-5.28,0.14c-1.28,0.1-2.29,0.25-3.03,0.46
	c-0.74,0.21-1.27,0.51-1.6,0.89c-0.33,0.38-0.62,0.86-0.86,1.43L203.63,101l-17.25-33.29c-0.29-0.57-0.59-1.05-0.93-1.43
	c-0.33-0.38-0.87-0.68-1.6-0.89c-0.74-0.21-1.76-0.37-3.07-0.46c-1.31-0.09-3.03-0.14-5.17-0.14c-2.47,0-4.38,0.07-5.74,0.21
	c-1.36,0.14-2.27,0.47-2.75,1c-0.48,0.52-0.57,1.28-0.29,2.28s0.88,2.33,1.78,3.99l22.1,40.28l-20.53,37.85
	c-0.86,1.71-1.44,3.08-1.75,4.1c-0.31,1.02-0.19,1.78,0.36,2.28c0.55,0.5,1.56,0.81,3.03,0.93c1.47,0.12,3.56,0.18,6.27,0.18
	c2.23,0,4-0.05,5.31-0.14c1.31-0.1,2.34-0.25,3.1-0.46c0.76-0.21,1.29-0.51,1.6-0.89c0.31-0.38,0.61-0.86,0.89-1.43l16.18-30.51
	l15.75,30.51c0.29,0.57,0.58,1.04,0.89,1.43c0.31,0.38,0.81,0.68,1.5,0.89c0.69,0.21,1.64,0.37,2.85,0.46
	c1.21,0.09,2.89,0.14,5.03,0.14c2.38,0,4.25-0.06,5.63-0.18c1.38-0.12,2.33-0.44,2.85-0.96c0.52-0.52,0.65-1.28,0.39-2.28
	c-0.26-1-0.8-2.35-1.6-4.06l-20.53-37.64l21.89-40.49C240.7,70.61,241.26,69.28,241.52,68.28z"/>
</svg>
