<?xml version="1.0" encoding="utf-8"?>
<!-- Generator: Adobe Illustrator 23.0.1, SVG Export Plug-In . SVG Version: 6.00 Build 0)  -->
<svg version="1.1" id="レイヤー_1" xmlns="http://www.w3.org/2000/svg" xmlns:xlink="http://www.w3.org/1999/xlink" x="0px"
	 y="0px" viewBox="0 0 300 300" style="enable-background:new 0 0 300 300;" xml:space="preserve">
<style type="text/css">
	.st0{enable-background:new    ;}
</style>
<path transform="matrix(1 0 0 1 -11 134)" class="st0" d="M90.6,169.76v21.11H27.71V294H2.42V169.76H90.6z M108.8,189.88
	c3.93-7.26,9.67-12.77,17.22-16.53c7.55-3.76,15.48-5.64,23.8-5.64c13.45,0,24.6,4.51,33.46,13.54
	c8.86,9.03,13.29,20.41,13.29,34.14c0,13.61-4.39,24.88-13.16,33.79c-8.77,8.92-20.02,13.37-33.75,13.37
	c-8.89,0-16.93-1.97-24.14-5.9c-7.21-3.93-12.77-9.63-16.71-17.09c-3.93-7.46-5.9-15.18-5.9-23.16
	C102.9,205.99,104.87,197.14,108.8,189.88z M133.92,235.81c4.27,4.79,9.54,7.18,15.81,7.18c6.27,0,11.52-2.39,15.77-7.18
	c4.24-4.79,6.37-11.62,6.37-20.51c0-9.12-2.12-16.06-6.37-20.85c-4.25-4.79-9.5-7.18-15.77-7.18c-6.27,0-11.54,2.39-15.81,7.18
	s-6.41,11.68-6.41,20.68S129.65,231.02,133.92,235.81z M213.05,160.87c0-8.09,3.22-14.77,9.66-20.04c6.44-5.27,17.35-7.9,32.73-7.9
	c8.15,0,14.88,0.85,20.21,2.56c5.33,1.71,9.58,4.07,12.77,7.09c3.19,3.02,5.67,7.18,7.43,12.48c1.76,5.3,2.65,13.3,2.65,24.01v81.43
	h-22.47v-12.73c-7.29,9.85-16.55,14.78-27.77,14.78c-10.88,0-19.98-4.02-27.3-12.05c-7.32-8.03-10.98-19.65-10.98-34.86
	c0-12.13,2.79-22.27,8.37-30.42c7.12-10.31,16.78-15.47,28.97-15.47c10.94,0,19.99,4.9,27.17,14.7v-13.24
	c0-5.35-0.37-9.03-1.11-11.02c-1.08-2.79-2.68-4.81-4.79-6.07c-3.13-1.88-7.83-2.82-14.1-2.82c-4.9,0-8.49,0.85-10.77,2.56
	c-1.65,1.2-2.71,3.39-3.16,6.58l-27.43,3.33C213.08,162.64,213.05,161.67,213.05,160.87z M240.18,237.48
	c3.73,4.47,8.47,6.71,14.23,6.71c5.92,0,10.82-2.28,14.7-6.84c3.87-4.56,5.81-11.54,5.81-20.93c0-9-2.02-15.79-6.07-20.38
	c-4.05-4.59-9-6.88-14.87-6.88c-5.47,0-10.07,2.24-13.8,6.71c-3.73,4.47-5.6,11.52-5.6,21.15
	C234.58,226.18,236.45,233,240.18,237.48z M131.53,29.24c9.23,10.54,14.95,17.49,17.17,20.85c1.59-4.33,4.84-11.48,9.74-21.45
	l9.4-18.88h29.05l-30.85,59.3l57.34,65.97H191l-19.74-22.3c-4.73-5.41-10.57-12.36-17.52-20.85c-0.4,0.97-0.77,1.74-1.11,2.31
	c-5.18,10.71-7.98,16.49-8.38,17.35l-12.22,23.5h-26.92l31.1-61.87L80.94,9.76h33.33L131.53,29.24z"/>
</svg>
