<?xml version="1.0" encoding="utf-8"?>
<!-- Generator: Adobe Illustrator 23.0.1, SVG Export Plug-In . SVG Version: 6.00 Build 0)  -->
<svg version="1.1" id="レイヤー_1" xmlns="http://www.w3.org/2000/svg" xmlns:xlink="http://www.w3.org/1999/xlink" x="0px"
	 y="0px" viewBox="0 0 300 300" style="enable-background:new 0 0 300 300;" xml:space="preserve">
<path d="M90.6,169.76v21.1H27.71V294H2.42V169.76H90.6z M108.8,189.9c3.93-7.26,9.67-12.77,17.22-16.53
	c7.55-3.76,15.48-5.64,23.8-5.64c13.44,0,24.59,4.51,33.45,13.54s13.29,20.41,13.29,34.14c0,13.61-4.39,24.87-13.16,33.79
	c-8.77,8.91-20.02,13.37-33.75,13.37c-8.89,0-16.93-1.97-24.14-5.9c-7.21-3.93-12.78-9.63-16.71-17.09
	c-3.93-7.47-5.9-15.19-5.9-23.16C102.9,205.99,104.87,197.15,108.8,189.9z M133.92,235.81c4.27,4.79,9.54,7.18,15.81,7.18
	s11.52-2.39,15.77-7.18c4.25-4.79,6.37-11.62,6.37-20.51c0-9.12-2.13-16.06-6.37-20.85c-4.25-4.79-9.5-7.18-15.77-7.18
	s-11.54,2.39-15.81,7.18c-4.27,4.79-6.41,11.68-6.41,20.68S129.65,231.03,133.92,235.81z M213.05,160.88
	c0-8.09,3.22-14.77,9.66-20.04c6.44-5.27,17.35-7.9,32.73-7.9c8.15,0,14.88,0.85,20.21,2.56c5.32,1.71,9.58,4.07,12.77,7.09
	c3.18,3.02,5.66,7.18,7.43,12.48s2.65,13.3,2.65,24.01v81.43h-22.47v-12.73c-7.29,9.85-16.55,14.78-27.77,14.78
	c-10.88,0-19.98-4.02-27.3-12.05c-7.32-8.03-10.98-19.65-10.98-34.86c0-12.13,2.79-22.27,8.37-30.42
	c7.12-10.32,16.78-15.47,28.97-15.47c10.94,0,19.99,4.9,27.17,14.7v-13.24c0-5.35-0.37-9.03-1.11-11.02
	c-1.09-2.79-2.68-4.82-4.79-6.07c-3.14-1.88-7.83-2.82-14.1-2.82c-4.9,0-8.49,0.85-10.77,2.56c-1.65,1.2-2.7,3.39-3.16,6.58
	l-27.43,3.33C213.08,162.64,213.05,161.67,213.05,160.88z M240.18,237.48c3.73,4.47,8.48,6.71,14.23,6.71
	c5.93,0,10.82-2.28,14.7-6.84c3.87-4.56,5.81-11.54,5.81-20.94c0-9-2.03-15.8-6.07-20.38c-4.05-4.59-9-6.88-14.87-6.88
	c-5.47,0-10.07,2.24-13.8,6.71c-3.73,4.47-5.6,11.52-5.6,21.15C234.58,226.18,236.45,233.01,240.18,237.48z M162.98,56.16
	l57.42,78.87h-29.91l-17.69-25.38l-11.88-16.58c-2.79-4.16-5.24-8.09-7.35-11.79c-1.25,3.76-3.73,9.88-7.43,18.37l-15.55,35.38
	h-27.43l34.52-76.48L127.51,9.76h25.72L162.98,56.16z"/>
</svg>
