<?xml version="1.0" encoding="utf-8"?>
<!-- Generator: Adobe Illustrator 23.0.1, SVG Export Plug-In . SVG Version: 6.00 Build 0)  -->
<svg version="1.1" id="レイヤー_1" xmlns="http://www.w3.org/2000/svg" xmlns:xlink="http://www.w3.org/1999/xlink" x="0px"
	 y="0px" viewBox="0 0 300 300" style="enable-background:new 0 0 300 300;" xml:space="preserve">
<path d="M303,25.9c-23.4,0.7-88.6,3.8-108,9.2c-5,1.4-13.3,3.7-21.3,24c-2,5-4.7,11.8-12.6,11.8c-7.2,0-10.9-5.6-15.6-12.7
	c-2.7-4-5.7-8.6-8.8-11.7c-6.1-6.1-25.3-16.5-32.8-10.1C89.3,48.9,79.6,105.5,73.5,147c-3.8,25.8-5.8,51-7.6,73.2
	c-1.4,17.8-2.7,33.2-4.5,44.3c-1.4,8.4-4.2,25.8-18.1,25.8c-6.4,0-14.8-3.4-18.9-19.4c-1.9-7.6-2.8-17.1-3.6-26.2
	c-0.4-4.5-0.8-8.8-1.3-12.7c-0.3-2.1-0.6-4.9-1.1-8.5c-4-32.8-16.2-132.6-34.5-171l19-9C20.7,80.7,32.2,162.6,39.3,221
	c0.4,3.5,0.8,6.3,1,8.3c0.5,4.2,1,8.9,1.4,13.4c0.2,1.7,0.3,3.7,0.5,5.8c1-9.4,1.9-20.2,2.7-30c1.8-22.6,3.9-48.1,7.7-74.6
	c11-75.1,21.6-109.8,37.6-123.4c20.6-17.7,52.1,2,61.3,11.2c2.8,2.8,5.3,6,7.5,9.1c5.1-9.6,14.1-21.2,30.3-25.7
	c25.9-7.3,109.5-9.9,113.1-10L303,25.9z M165.1,129.3h31.6v113.5l-37.8-18.2v19.5l37.6,17.9l20.3,0V129.3H248v-17h-82.9V129.3z"/>
</svg>
