<?xml version="1.0" encoding="utf-8"?>
<!-- Generator: Adobe Illustrator 23.0.1, SVG Export Plug-In . SVG Version: 6.00 Build 0)  -->
<svg version="1.1" id="レイヤー_1" xmlns="http://www.w3.org/2000/svg" xmlns:xlink="http://www.w3.org/1999/xlink" x="0px"
	 y="0px" viewBox="0 0 300 300" style="enable-background:new 0 0 300 300;" xml:space="preserve">
<path d="M88.1,221.2c-3.1,3.6-5.6,9.5-7.6,16.9c1-8.2,1.9-18.1,2.8-28.4c2.4-27.5,6.1-69.1,13.9-78.2c6.2-7.1,15.7-12,28.4-14.4
	c11.7-2.2,21.9-1.5,23.8-1.3c3.5,0.3,8,9,10.9,14.7l0.6,1.2c4.6,8.9,6.5,20.3,7.9,28.6c0.7,4,1.2,7.5,2,10.2
	c2.2,7.5,6.5,9.1,9.8,9.1c4.6,0,8.1-3.1,10.2-9.4c1.1-3,1.9-6.8,3-11.2c1.7-7.4,3.9-16.6,7.1-22c8.2-13.7,18.9-22.1,24.2-22.1H300
	v-15h-74.9c-6.7,0-13.9,3.4-21.4,10.1c-5.8,5.2-11.4,12.1-15.8,19.4c-2.9,4.8-4.9,10.9-6.5,16.9c-1.5-7-3.7-14.6-7.2-21.5l-0.6-1.1
	c-5-9.7-11.2-21.7-23-22.7c-4.5-0.4-44.2-3.1-64.8,20.9c0,0-0.1,0.1-0.1,0.1c0.2-2,0.4-4,0.5-6c2.2-25.5,6-68.1,13.2-76.5
	c14.8-17.2,47.2-14.9,49.6-14.7c2.4,1,6.6,9.2,8.6,13.1l0.6,1.2c4.4,8.5,6.2,19.1,7.6,27.7c0.7,4.1,1.3,7.7,2.1,10.6
	c2.9,10.2,9.8,11.3,12.6,11.3c4.1,0,9.8-2,13-11.4c1.1-3.2,2-7,3.1-11.5c1.7-7.2,3.8-16.2,6.8-21.2c7.6-12.8,17.8-20.7,21.7-20.7
	H300v-21h-74.9c-15.7,0-31.2,16.7-39.7,30.9c-1.4,2.3-2.6,5-3.7,7.7c-1.3-4.1-2.9-8.2-4.9-12.1l-0.6-1.1
	c-5.3-10.3-12-23.2-25.4-24.4C143.4,3,104.7,1,83.5,25.6C72.9,38,69.4,67.8,65.5,112c-0.5-3.8-1-7.5-1.5-10.9
	c-7-52.7-10.7-74.9-19.7-82.4c-1.8-1.5-3.3-2.9-4.6-4.1C29,4.9,24.5,3.6,0,3.6v21c9.6,0,16.2,0.2,19.5,1.1c1.7,0.5,2.5,1.1,6.2,4.4
	c1.3,1.2,2.8,2.6,4.7,4.2c4.6,7.2,9.7,46.2,12.8,69.5c0.7,4.9,1.3,9.7,1.9,14.4c-0.8-1.3-1.7-2.3-2.7-3.1c-1.9-1.6-3.4-2.9-4.7-4.1
	c-9.7-8.7-13-10.1-37.7-10.1v15c20.7,0,21.1,0.4,27.7,6.3c1.4,1.3,3,2.7,5,4.4c4.9,6,10.3,46.8,13.5,71.2
	c2.2,16.3,4.2,31.6,6.4,43.2c2.7,14.2,5.4,25,14.2,25c4.9,0,7.8-3.3,9.6-7.7c-2.2,14.5-3.7,31.4-5.1,48c-1.3,14.5-2.8,31.7-4.6,40.6
	c-2.9-10.9-6.1-34.7-8.6-53.1c-2.3-17-4.6-34.6-7.2-48.7c-4.1-22.2-7.5-27.6-10.4-29.9c-1.9-1.6-3.4-3-4.8-4.2
	c-9.2-8.3-11.8-9.4-35.7-9.4v9c21.9,0,22.6,0.7,29.7,7c1.4,1.3,3,2.7,5,4.4c0.5,0.5,3.4,3.8,7.3,24.7c2.6,13.9,4.9,31.4,7.1,48.3
	c7.1,53.2,9.5,65.7,17.6,65.7c8.3,0,9.9-12.8,13.4-53.5c2.6-29.6,6.2-70,14.6-79.9c16.7-19.4,50.9-17.1,54.7-16.7
	c5.2,0.4,9.5,8.9,13.3,16.3l0.6,1.2c4.8,9.3,6.8,21,8.2,29.5c1.7,10.1,2.8,16.8,8.8,16.8c6,0,7.7-7.3,10.3-18.3
	c1.8-7.6,4-17.1,7.5-22.9c8-13.5,19.6-23.6,26.8-23.6H300v-9h-74.9c-12.3,0-26.2,14.1-34.5,28c-4.2,7-6.6,17.2-8.5,25.4
	c-0.3,1.4-0.7,2.9-1,4.4c-0.1-0.8-0.3-1.6-0.4-2.4c-1.5-9.1-3.6-21.5-9.1-32.1l-0.6-1.1c-4.9-9.5-10.5-20.3-20.6-21.1
	C146.1,201,107.7,198.4,88.1,221.2z M71.7,173.8c-1.2,10.4-2.3,22-3.4,34.6c-0.6,7.2-1.4,15.4-2.2,22.9c-1.8-11.1-3.6-24.4-5.1-35.7
	c-1.2-9.3-2.4-17.6-3.4-25.1c2.3,2.6,5.2,4.2,9.2,4.2C68.7,174.7,70.3,174.4,71.7,173.8z"/>
</svg>
